<mxfile host="Electron" modified="2024-03-12T02:44:53.317Z" agent="Mozilla/5.0 (Macintosh; Intel Mac OS X 10_15_7) AppleWebKit/537.36 (KHTML, like Gecko) draw.io/23.0.2 Chrome/120.0.6099.109 Electron/28.1.0 Safari/537.36" etag="swROGCSNLGdvtBRmsn5C" version="23.0.2" type="device">
  <diagram name="Page-1" id="4U7qeZVK0G2h5YIYDU0B">
    <mxGraphModel dx="887" dy="570" grid="1" gridSize="10" guides="1" tooltips="1" connect="1" arrows="1" fold="1" page="1" pageScale="1" pageWidth="850" pageHeight="1100" math="0" shadow="0">
      <root>
        <mxCell id="0" />
        <mxCell id="1" parent="0" />
        <mxCell id="aJr19S0vIl0eU3aGWr0M-1" value="&lt;font style=&quot;font-size: 36px;&quot;&gt;Physical View&lt;/font&gt;" style="text;align=center;fontStyle=1;verticalAlign=middle;spacingLeft=3;spacingRight=3;strokeColor=none;rotatable=0;points=[[0,0.5],[1,0.5]];portConstraint=eastwest;html=1;" vertex="1" parent="1">
          <mxGeometry x="385" y="20" width="80" height="26" as="geometry" />
        </mxCell>
        <mxCell id="aJr19S0vIl0eU3aGWr0M-2" value="" style="shape=cube;whiteSpace=wrap;html=1;boundedLbl=1;backgroundOutline=1;darkOpacity=0.05;darkOpacity2=0.1;" vertex="1" parent="1">
          <mxGeometry x="336" y="210" width="215" height="150" as="geometry" />
        </mxCell>
        <mxCell id="aJr19S0vIl0eU3aGWr0M-3" value="Client" style="text;align=center;fontStyle=1;verticalAlign=middle;spacingLeft=3;spacingRight=3;strokeColor=none;rotatable=0;points=[[0,0.5],[1,0.5]];portConstraint=eastwest;html=1;" vertex="1" parent="1">
          <mxGeometry x="398.5" y="234" width="80" height="26" as="geometry" />
        </mxCell>
        <mxCell id="aJr19S0vIl0eU3aGWr0M-4" value="&lt;p style=&quot;margin:0px;margin-top:6px;text-align:center;&quot;&gt;&lt;b&gt;Client App&lt;/b&gt;&lt;/p&gt;" style="align=left;overflow=fill;html=1;dropTarget=0;whiteSpace=wrap;" vertex="1" parent="1">
          <mxGeometry x="382.5" y="270" width="148.5" height="80" as="geometry" />
        </mxCell>
        <mxCell id="aJr19S0vIl0eU3aGWr0M-5" value="" style="shape=component;jettyWidth=8;jettyHeight=4;" vertex="1" parent="aJr19S0vIl0eU3aGWr0M-4">
          <mxGeometry x="1" width="20" height="20" relative="1" as="geometry">
            <mxPoint x="-24" y="4" as="offset" />
          </mxGeometry>
        </mxCell>
        <mxCell id="aJr19S0vIl0eU3aGWr0M-6" value="Pygame" style="shape=module;align=left;spacingLeft=20;align=center;verticalAlign=top;whiteSpace=wrap;html=1;" vertex="1" parent="1">
          <mxGeometry x="415.75" y="310" width="82" height="30" as="geometry" />
        </mxCell>
        <mxCell id="aJr19S0vIl0eU3aGWr0M-8" value="&lt;font style=&quot;font-size: 16px;&quot;&gt;OOP&lt;br&gt;Minesweeper Solver&lt;br&gt;4+1&lt;br&gt;Mia Weber &amp;amp; Brandon Kamplain&lt;/font&gt;" style="text;html=1;strokeColor=none;fillColor=none;align=center;verticalAlign=middle;whiteSpace=wrap;rounded=0;" vertex="1" parent="1">
          <mxGeometry x="270" y="60" width="347" height="95" as="geometry" />
        </mxCell>
      </root>
    </mxGraphModel>
  </diagram>
</mxfile>
